<svg width="48" height="48" viewBox="0 0 48 48" fill="none" xmlns="http://www.w3.org/2000/svg">
<path d="M42.4983 34.68C43.761 35.409 45.3904 34.9808 45.9764 33.6457C47.7994 29.4924 48.4154 24.8889 47.7239 20.3697C46.8987 14.977 44.2608 10.0264 40.245 6.33367C36.2293 2.64098 31.0752 0.426635 25.6324 0.0555776C21.0712 -0.25537 16.5354 0.743684 12.5492 2.9078C11.2678 3.60347 10.9774 5.26299 11.8096 6.46025C12.6417 7.65751 14.2807 7.93449 15.583 7.27893C18.5652 5.77778 21.9104 5.0941 25.2732 5.32335C29.5187 5.61278 33.5388 7.33997 36.6711 10.2203C39.8034 13.1006 41.8609 16.9621 42.5046 21.1684C43.0145 24.5003 42.6131 27.8909 41.3667 30.9883C40.8225 32.3409 41.2356 33.951 42.4983 34.68Z" fill="url(#paint0_linear_2_517)"/>
<path d="M9.70737 8.12642C8.73176 7.0429 7.04983 6.94662 6.07996 8.03528C4.46915 9.84338 3.13782 11.8888 2.13516 14.1041C0.768802 17.123 0.042431 20.3922 0.00180381 23.7058C-0.0388234 27.0193 0.607174 30.3053 1.8991 33.3568C3.19103 36.4084 5.1009 39.1593 7.5084 41.4364C9.91589 43.7134 12.7689 45.4672 15.8876 46.5873C19.0063 47.7075 22.3232 48.1696 25.6293 47.9446C28.9354 47.7197 32.1591 46.8125 35.0973 45.2803C37.2534 44.1559 39.2216 42.7128 40.9372 41.0038C41.9702 39.9749 41.7805 38.3009 40.6444 37.3871C39.5082 36.4733 37.8577 36.67 36.7932 37.6664C35.5565 38.8242 34.1653 39.8115 32.6559 40.5986C30.3641 41.7938 27.8496 42.5013 25.2708 42.6768C22.6921 42.8523 20.1049 42.4918 17.6723 41.6181C15.2397 40.7444 13.0144 39.3765 11.1365 37.6004C9.2587 35.8243 7.76901 33.6785 6.7613 31.2983C5.7536 28.9181 5.24972 26.355 5.28141 23.7705C5.3131 21.186 5.87967 18.636 6.94543 16.2812C7.64731 14.7304 8.55569 13.2864 9.64281 11.9871C10.5785 10.8689 10.683 9.20995 9.70737 8.12642Z" fill="url(#paint1_linear_2_517)" fill-opacity="0.3"/>
<path d="M16.88 27V25.7H13.43V24.68L16.71 20H18.16V24.59H19.08V25.7H18.16V27H16.88ZM14.8 24.59H16.96V21.41L14.8 24.59ZM22.1763 27.12C21.7163 27.12 21.2996 27.04 20.9263 26.88C20.5529 26.7133 20.2529 26.46 20.0263 26.12C19.7996 25.78 19.6796 25.3533 19.6663 24.84H20.9263C20.9329 25.18 21.0429 25.4667 21.2563 25.7C21.4763 25.9267 21.7829 26.04 22.1763 26.04C22.5496 26.04 22.8363 25.9367 23.0363 25.73C23.2363 25.5233 23.3363 25.2633 23.3363 24.95C23.3363 24.5833 23.2029 24.3067 22.9363 24.12C22.6763 23.9267 22.3396 23.83 21.9263 23.83H21.4063V22.78H21.9363C22.2763 22.78 22.5596 22.7 22.7863 22.54C23.0129 22.38 23.1263 22.1433 23.1263 21.83C23.1263 21.57 23.0396 21.3633 22.8663 21.21C22.6996 21.05 22.4663 20.97 22.1663 20.97C21.8396 20.97 21.5829 21.0667 21.3963 21.26C21.2163 21.4533 21.1163 21.69 21.0963 21.97H19.8463C19.8729 21.3233 20.0963 20.8133 20.5163 20.44C20.9429 20.0667 21.4929 19.88 22.1663 19.88C22.6463 19.88 23.0496 19.9667 23.3763 20.14C23.7096 20.3067 23.9596 20.53 24.1263 20.81C24.2996 21.09 24.3863 21.4 24.3863 21.74C24.3863 22.1333 24.2763 22.4667 24.0563 22.74C23.8429 23.0067 23.5763 23.1867 23.2563 23.28C23.6496 23.36 23.9696 23.5533 24.2163 23.86C24.4629 24.16 24.5863 24.54 24.5863 25C24.5863 25.3867 24.4929 25.74 24.3063 26.06C24.1196 26.38 23.8463 26.6367 23.4863 26.83C23.1329 27.0233 22.6963 27.12 22.1763 27.12ZM29.2661 23.44C28.9461 23.44 28.6561 23.37 28.3961 23.23C28.1361 23.0833 27.9294 22.8767 27.7761 22.61C27.6228 22.3433 27.5461 22.0267 27.5461 21.66C27.5461 21.2933 27.6228 20.9767 27.7761 20.71C27.9294 20.4433 28.1361 20.24 28.3961 20.1C28.6561 19.9533 28.9494 19.88 29.2761 19.88C29.5961 19.88 29.8828 19.9533 30.1361 20.1C30.3961 20.24 30.6028 20.4433 30.7561 20.71C30.9094 20.9767 30.9861 21.2933 30.9861 21.66C30.9861 22.0267 30.9094 22.3433 30.7561 22.61C30.6028 22.8767 30.3961 23.0833 30.1361 23.23C29.8761 23.37 29.5861 23.44 29.2661 23.44ZM28.8861 27L32.8361 20H34.0861L30.1361 27H28.8861ZM29.2661 22.55C29.4594 22.55 29.6261 22.4767 29.7661 22.33C29.9061 22.1767 29.9761 21.9533 29.9761 21.66C29.9761 21.3667 29.9061 21.1433 29.7661 20.99C29.6328 20.8367 29.4661 20.76 29.2661 20.76C29.0661 20.76 28.8961 20.8367 28.7561 20.99C28.6228 21.1433 28.5561 21.3667 28.5561 21.66C28.5561 21.9533 28.6228 22.1767 28.7561 22.33C28.8961 22.4767 29.0661 22.55 29.2661 22.55ZM33.7461 27.12C33.4261 27.12 33.1361 27.05 32.8761 26.91C32.6161 26.7633 32.4094 26.5567 32.2561 26.29C32.1028 26.0233 32.0261 25.7067 32.0261 25.34C32.0261 24.9733 32.1028 24.66 32.2561 24.4C32.4094 24.1333 32.6161 23.93 32.8761 23.79C33.1361 23.6433 33.4294 23.57 33.7561 23.57C34.0761 23.57 34.3628 23.6433 34.6161 23.79C34.8761 23.93 35.0828 24.1333 35.2361 24.4C35.3894 24.66 35.4661 24.9733 35.4661 25.34C35.4661 25.7067 35.3894 26.0233 35.2361 26.29C35.0828 26.5567 34.8761 26.7633 34.6161 26.91C34.3628 27.05 34.0728 27.12 33.7461 27.12ZM33.7461 26.23C33.9461 26.23 34.1128 26.1567 34.2461 26.01C34.3861 25.8567 34.4561 25.6333 34.4561 25.34C34.4561 25.0467 34.3861 24.8233 34.2461 24.67C34.1128 24.5167 33.9461 24.44 33.7461 24.44C33.5461 24.44 33.3761 24.5167 33.2361 24.67C33.1028 24.8233 33.0361 25.0467 33.0361 25.34C33.0361 25.6333 33.1028 25.8567 33.2361 26.01C33.3761 26.1567 33.5461 26.23 33.7461 26.23Z" fill="white"/>
<defs>
<linearGradient id="paint0_linear_2_517" x1="24" y1="0" x2="24" y2="48" gradientUnits="userSpaceOnUse">
<stop stop-color="#CB03C3"/>
<stop offset="1" stop-color="#FB18BB"/>
</linearGradient>
<linearGradient id="paint1_linear_2_517" x1="24" y1="0" x2="24" y2="48" gradientUnits="userSpaceOnUse">
<stop stop-color="#CB03C3"/>
<stop offset="1" stop-color="#FB18BB"/>
</linearGradient>
</defs>
</svg>
