<svg width="48" height="48" viewBox="0 0 48 48" fill="none" xmlns="http://www.w3.org/2000/svg">
<path d="M42.4983 34.68C43.761 35.409 45.3904 34.9808 45.9764 33.6457C47.2937 30.6444 47.9824 27.4044 47.9997 24.1268C48.0074 22.6688 46.693 21.6149 45.243 21.7673C43.7929 21.9197 42.7606 23.2225 42.7077 24.6796C42.6291 26.8441 42.1753 28.9789 41.3667 30.9883C40.8224 32.3409 41.2356 33.951 42.4983 34.68Z" fill="url(#paint0_linear_2_527)"/>
<path d="M44.6322 18.4716C46.0405 18.0943 46.8899 16.6393 46.3602 15.2809C44.7288 11.0972 41.9486 7.43706 38.3162 4.73741C33.9744 1.5106 28.6699 -0.154801 23.263 0.0113191C17.856 0.177439 12.6638 2.16534 8.52833 5.65259C4.39289 9.13985 1.55685 13.9219 0.480176 19.2232C-0.596498 24.5245 0.149352 30.034 2.59675 34.8582C5.04416 39.6824 9.04956 43.5383 13.9633 45.8006C18.8771 48.0628 24.411 48.5987 29.6675 47.3212C34.0653 46.2525 38.0531 43.9669 41.1873 40.7511C42.2049 39.7069 41.9904 38.0359 40.8409 37.139C39.6913 36.2422 38.0439 36.4634 36.9943 37.4754C34.6163 39.7686 31.6612 41.403 28.4207 42.1905C24.3206 43.187 20.0041 42.769 16.1714 41.0045C12.3387 39.2399 9.21444 36.2323 7.30547 32.4694C5.3965 28.7065 4.81473 24.4091 5.65454 20.2741C6.49434 16.1391 8.70646 12.4091 11.9321 9.68902C15.1577 6.96896 19.2077 5.4184 23.4251 5.28883C27.6426 5.15926 31.7801 6.45827 35.1666 8.97518C37.8432 10.9644 39.9265 13.6222 41.2216 16.6613C41.7932 18.0026 43.2238 18.849 44.6322 18.4716Z" fill="url(#paint1_linear_2_527)" fill-opacity="0.3"/>
<path d="M14.44 27V21.46L13.29 21.73V20.75L14.98 20H15.77V27H14.44ZM19.7973 27.12C19.1506 27.12 18.5973 26.97 18.1373 26.67C17.6773 26.3633 17.3206 25.94 17.0673 25.4C16.8206 24.8533 16.6973 24.22 16.6973 23.5C16.6973 22.7867 16.8206 22.1567 17.0673 21.61C17.3206 21.0633 17.6773 20.64 18.1373 20.34C18.5973 20.0333 19.1506 19.88 19.7973 19.88C20.4439 19.88 20.9973 20.0333 21.4573 20.34C21.9173 20.64 22.2706 21.0633 22.5173 21.61C22.7706 22.1567 22.8973 22.7867 22.8973 23.5C22.8973 24.22 22.7706 24.8533 22.5173 25.4C22.2706 25.94 21.9173 26.3633 21.4573 26.67C20.9973 26.97 20.4439 27.12 19.7973 27.12ZM19.7973 25.97C20.3239 25.97 20.7539 25.75 21.0873 25.31C21.4206 24.87 21.5873 24.2667 21.5873 23.5C21.5873 22.7333 21.4206 22.13 21.0873 21.69C20.7539 21.25 20.3239 21.03 19.7973 21.03C19.2639 21.03 18.8306 21.25 18.4973 21.69C18.1706 22.13 18.0073 22.7333 18.0073 23.5C18.0073 24.2667 18.1706 24.87 18.4973 25.31C18.8306 25.75 19.2639 25.97 19.7973 25.97ZM27.4497 23.44C27.1297 23.44 26.8397 23.37 26.5797 23.23C26.3197 23.0833 26.113 22.8767 25.9597 22.61C25.8064 22.3433 25.7297 22.0267 25.7297 21.66C25.7297 21.2933 25.8064 20.9767 25.9597 20.71C26.113 20.4433 26.3197 20.24 26.5797 20.1C26.8397 19.9533 27.133 19.88 27.4597 19.88C27.7797 19.88 28.0664 19.9533 28.3197 20.1C28.5797 20.24 28.7864 20.4433 28.9397 20.71C29.093 20.9767 29.1697 21.2933 29.1697 21.66C29.1697 22.0267 29.093 22.3433 28.9397 22.61C28.7864 22.8767 28.5797 23.0833 28.3197 23.23C28.0597 23.37 27.7697 23.44 27.4497 23.44ZM27.0697 27L31.0197 20H32.2697L28.3197 27H27.0697ZM27.4497 22.55C27.643 22.55 27.8097 22.4767 27.9497 22.33C28.0897 22.1767 28.1597 21.9533 28.1597 21.66C28.1597 21.3667 28.0897 21.1433 27.9497 20.99C27.8164 20.8367 27.6497 20.76 27.4497 20.76C27.2497 20.76 27.0797 20.8367 26.9397 20.99C26.8064 21.1433 26.7397 21.3667 26.7397 21.66C26.7397 21.9533 26.8064 22.1767 26.9397 22.33C27.0797 22.4767 27.2497 22.55 27.4497 22.55ZM31.9297 27.12C31.6097 27.12 31.3197 27.05 31.0597 26.91C30.7997 26.7633 30.593 26.5567 30.4397 26.29C30.2864 26.0233 30.2097 25.7067 30.2097 25.34C30.2097 24.9733 30.2864 24.66 30.4397 24.4C30.593 24.1333 30.7997 23.93 31.0597 23.79C31.3197 23.6433 31.613 23.57 31.9397 23.57C32.2597 23.57 32.5464 23.6433 32.7997 23.79C33.0597 23.93 33.2664 24.1333 33.4197 24.4C33.573 24.66 33.6497 24.9733 33.6497 25.34C33.6497 25.7067 33.573 26.0233 33.4197 26.29C33.2664 26.5567 33.0597 26.7633 32.7997 26.91C32.5464 27.05 32.2564 27.12 31.9297 27.12ZM31.9297 26.23C32.1297 26.23 32.2964 26.1567 32.4297 26.01C32.5697 25.8567 32.6397 25.6333 32.6397 25.34C32.6397 25.0467 32.5697 24.8233 32.4297 24.67C32.2964 24.5167 32.1297 24.44 31.9297 24.44C31.7297 24.44 31.5597 24.5167 31.4197 24.67C31.2864 24.8233 31.2197 25.0467 31.2197 25.34C31.2197 25.6333 31.2864 25.8567 31.4197 26.01C31.5597 26.1567 31.7297 26.23 31.9297 26.23Z" fill="white"/>
<defs>
<linearGradient id="paint0_linear_2_527" x1="24" y1="0" x2="24" y2="48" gradientUnits="userSpaceOnUse">
<stop stop-color="#037BCB"/>
<stop offset="1" stop-color="#18A0FB"/>
</linearGradient>
<linearGradient id="paint1_linear_2_527" x1="24" y1="0" x2="24" y2="48" gradientUnits="userSpaceOnUse">
<stop stop-color="#037BCB"/>
<stop offset="1" stop-color="#18A0FB"/>
</linearGradient>
</defs>
</svg>
