<svg width="48" height="48" viewBox="0 0 48 48" fill="none" xmlns="http://www.w3.org/2000/svg">
<path d="M42.4983 34.68C43.761 35.409 45.3904 34.9808 45.9764 33.6457C47.3917 30.421 48.0845 26.9137 47.9918 23.3718C47.8759 18.9471 46.5387 14.6407 44.1281 10.9287C41.7174 7.21659 38.3272 4.24345 34.3323 2.33795C30.3373 0.432452 25.8932 -0.331183 21.4913 0.131474C17.0894 0.594132 12.9012 2.26506 9.38973 4.95952C5.87824 7.65398 3.18026 11.267 1.59407 15.3992C0.00788442 19.5313 -0.404717 24.0216 0.401882 28.3737C1.04758 31.8575 2.45443 35.1441 4.50933 38.0041C5.36009 39.1882 7.0429 39.2682 8.12643 38.2926C9.20996 37.317 9.27937 35.6562 8.46575 34.4463C7.04264 32.3301 6.06159 29.9372 5.59347 27.4114C4.96432 24.0169 5.28615 20.5144 6.52338 17.2914C7.7606 14.0683 9.86502 11.2501 12.604 9.14843C15.3429 7.04675 18.6098 5.74342 22.0432 5.38255C25.4767 5.02168 28.9431 5.61731 32.0592 7.1036C35.1752 8.5899 37.8196 10.9089 39.6999 13.8044C41.5802 16.6998 42.6232 20.0588 42.7136 23.51C42.7808 26.0779 42.3187 28.6224 41.3667 30.9883C40.8224 32.3409 41.2356 33.951 42.4983 34.68Z" fill="url(#paint0_linear_2_507)"/>
<path d="M10.5577 40.5998C9.64015 41.7329 9.80816 43.4092 11.0351 44.1968C12.9378 45.4182 15.0073 46.367 17.1836 47.0117C20.2056 47.9068 23.3742 48.198 26.5087 47.8685C29.6431 47.5391 32.682 46.5955 35.4518 45.0916C37.4465 44.0086 39.2736 42.6502 40.8807 41.0599C41.9171 40.0344 41.7329 38.3598 40.5998 37.4423C39.4667 36.5247 37.8156 36.7159 36.7478 37.7088C35.5988 38.7773 34.3174 39.6994 32.9324 40.4515C30.772 41.6245 28.4017 42.3605 25.9568 42.6175C23.5119 42.8744 21.0403 42.6473 18.6832 41.9491C17.1721 41.5015 15.727 40.8659 14.381 40.0597C13.1301 39.3105 11.4753 39.4667 10.5577 40.5998Z" fill="url(#paint1_linear_2_507)" fill-opacity="0.3"/>
<path d="M14.08 27L16.72 21.09H13.27V20H18.04V20.91L15.41 27H14.08ZM21.6234 27.12C20.9768 27.12 20.4234 26.97 19.9634 26.67C19.5034 26.3633 19.1468 25.94 18.8934 25.4C18.6468 24.8533 18.5234 24.22 18.5234 23.5C18.5234 22.7867 18.6468 22.1567 18.8934 21.61C19.1468 21.0633 19.5034 20.64 19.9634 20.34C20.4234 20.0333 20.9768 19.88 21.6234 19.88C22.2701 19.88 22.8234 20.0333 23.2834 20.34C23.7434 20.64 24.0968 21.0633 24.3434 21.61C24.5968 22.1567 24.7234 22.7867 24.7234 23.5C24.7234 24.22 24.5968 24.8533 24.3434 25.4C24.0968 25.94 23.7434 26.3633 23.2834 26.67C22.8234 26.97 22.2701 27.12 21.6234 27.12ZM21.6234 25.97C22.1501 25.97 22.5801 25.75 22.9134 25.31C23.2468 24.87 23.4134 24.2667 23.4134 23.5C23.4134 22.7333 23.2468 22.13 22.9134 21.69C22.5801 21.25 22.1501 21.03 21.6234 21.03C21.0901 21.03 20.6568 21.25 20.3234 21.69C19.9968 22.13 19.8334 22.7333 19.8334 23.5C19.8334 24.2667 19.9968 24.87 20.3234 25.31C20.6568 25.75 21.0901 25.97 21.6234 25.97ZM29.2759 23.44C28.9559 23.44 28.6659 23.37 28.4059 23.23C28.1459 23.0833 27.9392 22.8767 27.7859 22.61C27.6325 22.3433 27.5559 22.0267 27.5559 21.66C27.5559 21.2933 27.6325 20.9767 27.7859 20.71C27.9392 20.4433 28.1459 20.24 28.4059 20.1C28.6659 19.9533 28.9592 19.88 29.2859 19.88C29.6059 19.88 29.8925 19.9533 30.1459 20.1C30.4059 20.24 30.6125 20.4433 30.7659 20.71C30.9192 20.9767 30.9959 21.2933 30.9959 21.66C30.9959 22.0267 30.9192 22.3433 30.7659 22.61C30.6125 22.8767 30.4059 23.0833 30.1459 23.23C29.8859 23.37 29.5959 23.44 29.2759 23.44ZM28.8959 27L32.8459 20H34.0959L30.1459 27H28.8959ZM29.2759 22.55C29.4692 22.55 29.6359 22.4767 29.7759 22.33C29.9159 22.1767 29.9859 21.9533 29.9859 21.66C29.9859 21.3667 29.9159 21.1433 29.7759 20.99C29.6425 20.8367 29.4759 20.76 29.2759 20.76C29.0759 20.76 28.9059 20.8367 28.7659 20.99C28.6325 21.1433 28.5659 21.3667 28.5659 21.66C28.5659 21.9533 28.6325 22.1767 28.7659 22.33C28.9059 22.4767 29.0759 22.55 29.2759 22.55ZM33.7559 27.12C33.4359 27.12 33.1459 27.05 32.8859 26.91C32.6259 26.7633 32.4192 26.5567 32.2659 26.29C32.1125 26.0233 32.0359 25.7067 32.0359 25.34C32.0359 24.9733 32.1125 24.66 32.2659 24.4C32.4192 24.1333 32.6259 23.93 32.8859 23.79C33.1459 23.6433 33.4392 23.57 33.7659 23.57C34.0859 23.57 34.3725 23.6433 34.6259 23.79C34.8859 23.93 35.0925 24.1333 35.2459 24.4C35.3992 24.66 35.4759 24.9733 35.4759 25.34C35.4759 25.7067 35.3992 26.0233 35.2459 26.29C35.0925 26.5567 34.8859 26.7633 34.6259 26.91C34.3725 27.05 34.0825 27.12 33.7559 27.12ZM33.7559 26.23C33.9559 26.23 34.1225 26.1567 34.2559 26.01C34.3959 25.8567 34.4659 25.6333 34.4659 25.34C34.4659 25.0467 34.3959 24.8233 34.2559 24.67C34.1225 24.5167 33.9559 24.44 33.7559 24.44C33.5559 24.44 33.3859 24.5167 33.2459 24.67C33.1125 24.8233 33.0459 25.0467 33.0459 25.34C33.0459 25.6333 33.1125 25.8567 33.2459 26.01C33.3859 26.1567 33.5559 26.23 33.7559 26.23Z" fill="white"/>
<defs>
<linearGradient id="paint0_linear_2_507" x1="24" y1="0" x2="24" y2="48" gradientUnits="userSpaceOnUse">
<stop stop-color="#03CBB3"/>
<stop offset="1" stop-color="#18FBFB"/>
</linearGradient>
<linearGradient id="paint1_linear_2_507" x1="24" y1="0" x2="24" y2="48" gradientUnits="userSpaceOnUse">
<stop stop-color="#03CBB3"/>
<stop offset="1" stop-color="#18FBFB"/>
</linearGradient>
</defs>
</svg>
