<svg width="48" height="48" viewBox="0 0 48 48" fill="none" xmlns="http://www.w3.org/2000/svg">
<path d="M42.4983 34.68C43.761 35.409 45.3904 34.9808 45.9763 33.6457C47.1381 30.9989 47.8151 28.1571 47.9671 25.2561C48.1653 21.4738 47.4656 17.6983 45.9251 14.2383C44.3846 10.7783 42.0471 7.73202 39.1037 5.3485C36.1603 2.96498 32.6946 1.31191 28.9899 0.524457C25.2852 -0.262998 21.4467 -0.162484 17.7883 0.817781C14.1299 1.79805 10.7555 3.63023 7.94086 6.16453C5.12624 8.69883 2.95137 11.8633 1.59407 15.3992C0.553009 18.1112 0.0155991 20.9827 0.000330094 23.8732C-0.00737183 25.3312 1.30697 26.3851 2.75701 26.2327C4.20706 26.0803 5.23941 24.7775 5.29234 23.3205C5.36709 21.2626 5.78111 19.225 6.52337 17.2914C7.58207 14.5334 9.27847 12.0651 11.4739 10.0883C13.6693 8.11158 16.3014 6.68248 19.1549 5.91787C22.0085 5.15326 25.0025 5.07486 27.8921 5.68908C30.7818 6.30329 33.485 7.59268 35.7809 9.45183C38.0767 11.311 39.9 13.6871 41.1016 16.3859C42.3032 19.0847 42.849 22.0296 42.6943 24.9797C42.5859 27.0481 42.1354 29.078 41.3667 30.9883C40.8224 32.3409 41.2356 33.951 42.4983 34.68Z" fill="url(#paint0_linear_2_497)"/>
<path d="M3.36783 29.5284C1.95947 29.9057 1.11012 31.3607 1.63981 32.7191C2.91921 36.0001 4.90935 38.97 7.47949 41.409C10.6901 44.4557 14.6807 46.5553 19.0101 47.4755C23.3395 48.3958 27.8391 48.1009 32.0114 46.6234C35.3513 45.4407 38.3774 43.537 40.8807 41.06C41.9171 40.0345 41.7329 38.3599 40.5998 37.4423C39.4667 36.5247 37.8155 36.716 36.7478 37.7088C34.8802 39.4455 32.6703 40.7888 30.2489 41.6462C26.9945 42.7987 23.4848 43.0287 20.1079 42.3109C16.731 41.5931 13.6183 39.9555 11.114 37.579C9.25067 35.8108 7.77817 33.6848 6.77841 31.3386C6.20683 29.9973 4.77618 29.151 3.36783 29.5284Z" fill="url(#paint1_linear_2_497)" fill-opacity="0.3"/>
<path d="M16.31 27.12C15.7833 27.12 15.34 27.0233 14.98 26.83C14.62 26.6367 14.33 26.3767 14.11 26.05C13.89 25.7233 13.73 25.36 13.63 24.96C13.5367 24.56 13.49 24.15 13.49 23.73C13.49 22.95 13.6 22.2733 13.82 21.7C14.04 21.12 14.3567 20.6733 14.77 20.36C15.1833 20.04 15.6833 19.88 16.27 19.88C16.75 19.88 17.1567 19.9767 17.49 20.17C17.83 20.3567 18.0933 20.6033 18.28 20.91C18.4667 21.2167 18.5767 21.5467 18.61 21.9H17.42C17.36 21.5933 17.23 21.3567 17.03 21.19C16.83 21.0233 16.5733 20.94 16.26 20.94C15.8133 20.94 15.4533 21.1467 15.18 21.56C14.9067 21.9667 14.76 22.59 14.74 23.43C14.9 23.1567 15.14 22.93 15.46 22.75C15.78 22.57 16.1367 22.48 16.53 22.48C16.9167 22.48 17.28 22.5733 17.62 22.76C17.96 22.9467 18.2333 23.21 18.44 23.55C18.6533 23.89 18.76 24.29 18.76 24.75C18.76 25.17 18.6567 25.56 18.45 25.92C18.25 26.28 17.9633 26.57 17.59 26.79C17.2233 27.01 16.7967 27.12 16.31 27.12ZM16.24 26.02C16.6133 26.02 16.92 25.9067 17.16 25.68C17.4067 25.4467 17.53 25.1533 17.53 24.8C17.53 24.4267 17.4067 24.1267 17.16 23.9C16.9133 23.6733 16.6 23.56 16.22 23.56C15.9733 23.56 15.75 23.6167 15.55 23.73C15.3567 23.8367 15.2033 23.9833 15.09 24.17C14.9767 24.35 14.92 24.5533 14.92 24.78C14.92 25.14 15.0433 25.4367 15.29 25.67C15.5433 25.9033 15.86 26.02 16.24 26.02ZM22.6879 27.12C22.0412 27.12 21.4879 26.97 21.0279 26.67C20.5679 26.3633 20.2112 25.94 19.9579 25.4C19.7112 24.8533 19.5879 24.22 19.5879 23.5C19.5879 22.7867 19.7112 22.1567 19.9579 21.61C20.2112 21.0633 20.5679 20.64 21.0279 20.34C21.4879 20.0333 22.0412 19.88 22.6879 19.88C23.3346 19.88 23.8879 20.0333 24.3479 20.34C24.8079 20.64 25.1612 21.0633 25.4079 21.61C25.6612 22.1567 25.7879 22.7867 25.7879 23.5C25.7879 24.22 25.6612 24.8533 25.4079 25.4C25.1612 25.94 24.8079 26.3633 24.3479 26.67C23.8879 26.97 23.3346 27.12 22.6879 27.12ZM22.6879 25.97C23.2146 25.97 23.6446 25.75 23.9779 25.31C24.3112 24.87 24.4779 24.2667 24.4779 23.5C24.4779 22.7333 24.3112 22.13 23.9779 21.69C23.6446 21.25 23.2146 21.03 22.6879 21.03C22.1546 21.03 21.7212 21.25 21.3879 21.69C21.0612 22.13 20.8979 22.7333 20.8979 23.5C20.8979 24.2667 21.0612 24.87 21.3879 25.31C21.7212 25.75 22.1546 25.97 22.6879 25.97ZM30.3403 23.44C30.0203 23.44 29.7303 23.37 29.4703 23.23C29.2103 23.0833 29.0036 22.8767 28.8503 22.61C28.697 22.3433 28.6203 22.0267 28.6203 21.66C28.6203 21.2933 28.697 20.9767 28.8503 20.71C29.0036 20.4433 29.2103 20.24 29.4703 20.1C29.7303 19.9533 30.0236 19.88 30.3503 19.88C30.6703 19.88 30.957 19.9533 31.2103 20.1C31.4703 20.24 31.677 20.4433 31.8303 20.71C31.9836 20.9767 32.0603 21.2933 32.0603 21.66C32.0603 22.0267 31.9836 22.3433 31.8303 22.61C31.677 22.8767 31.4703 23.0833 31.2103 23.23C30.9503 23.37 30.6603 23.44 30.3403 23.44ZM29.9603 27L33.9103 20H35.1603L31.2103 27H29.9603ZM30.3403 22.55C30.5336 22.55 30.7003 22.4767 30.8403 22.33C30.9803 22.1767 31.0503 21.9533 31.0503 21.66C31.0503 21.3667 30.9803 21.1433 30.8403 20.99C30.707 20.8367 30.5403 20.76 30.3403 20.76C30.1403 20.76 29.9703 20.8367 29.8303 20.99C29.697 21.1433 29.6303 21.3667 29.6303 21.66C29.6303 21.9533 29.697 22.1767 29.8303 22.33C29.9703 22.4767 30.1403 22.55 30.3403 22.55ZM34.8203 27.12C34.5003 27.12 34.2103 27.05 33.9503 26.91C33.6903 26.7633 33.4836 26.5567 33.3303 26.29C33.177 26.0233 33.1003 25.7067 33.1003 25.34C33.1003 24.9733 33.177 24.66 33.3303 24.4C33.4836 24.1333 33.6903 23.93 33.9503 23.79C34.2103 23.6433 34.5036 23.57 34.8303 23.57C35.1503 23.57 35.437 23.6433 35.6903 23.79C35.9503 23.93 36.157 24.1333 36.3103 24.4C36.4636 24.66 36.5403 24.9733 36.5403 25.34C36.5403 25.7067 36.4636 26.0233 36.3103 26.29C36.157 26.5567 35.9503 26.7633 35.6903 26.91C35.437 27.05 35.147 27.12 34.8203 27.12ZM34.8203 26.23C35.0203 26.23 35.187 26.1567 35.3203 26.01C35.4603 25.8567 35.5303 25.6333 35.5303 25.34C35.5303 25.0467 35.4603 24.8233 35.3203 24.67C35.187 24.5167 35.0203 24.44 34.8203 24.44C34.6203 24.44 34.4503 24.5167 34.3103 24.67C34.177 24.8233 34.1103 25.0467 34.1103 25.34C34.1103 25.6333 34.177 25.8567 34.3103 26.01C34.4503 26.1567 34.6203 26.23 34.8203 26.23Z" fill="white"/>
<defs>
<linearGradient id="paint0_linear_2_497" x1="24" y1="0" x2="24" y2="48" gradientUnits="userSpaceOnUse">
<stop stop-color="#037BCB"/>
<stop offset="1" stop-color="#18A0FB"/>
</linearGradient>
<linearGradient id="paint1_linear_2_497" x1="24" y1="0" x2="24" y2="48" gradientUnits="userSpaceOnUse">
<stop stop-color="#037BCB"/>
<stop offset="1" stop-color="#18A0FB"/>
</linearGradient>
</defs>
</svg>
